# xmcd CD database file
#
# Track frame offsets:
#	150
#	14672
#	28490
#	44762
#	61197
#	82854
#	96900
#	111030
#	127507
#	146035
#
# Disc length: 2254 seconds
#
# Revision: 0
# Processed by: cddbd v1.5.2PL0 Copyright (c) Steve Scherf et al.
# Submitted via: CDex 1.70beta2
#
DISCID=8408cc0a
DTITLE=Gary White - For the Spirit of it
DYEAR=1999
DGENRE=Blues
TTITLE0=Barber Shop
TTITLE1=Blues will sing to you
TTITLE2=Silver vase of Roses
TTITLE3=Country Callin'
TTITLE4=Spirit of the West
TTITLE5=Row me on Ober
TTITLE6=Who Loves You
TTITLE7=Country Thang
TTITLE8=Her Memory Just Won't Die
TTITLE9=Angel for Me
EXTD=YEAR: 1999
EXTT0=
EXTT1=
EXTT2=
EXTT3=
EXTT4=
EXTT5=
EXTT6=
EXTT7=
EXTT8=
EXTT9=
PLAYORDER=
